<svg id="my-svg" width="100%" xmlns="http://www.w3.org/2000/svg" xmlns:xlink="http://www.w3.org/1999/xlink" class="flowchart" style="max-width: 2408.46px; background-color: white;" viewBox="0 0 2408.4609375 1109.796875" role="graphics-document document" aria-roledescription="flowchart-v2"><style>#my-svg{font-family:"trebuchet ms",verdana,arial,sans-serif;font-size:16px;fill:#333;}@keyframes edge-animation-frame{from{stroke-dashoffset:0;}}@keyframes dash{to{stroke-dashoffset:0;}}#my-svg .edge-animation-slow{stroke-dasharray:9,5!important;stroke-dashoffset:900;animation:dash 50s linear infinite;stroke-linecap:round;}#my-svg .edge-animation-fast{stroke-dasharray:9,5!important;stroke-dashoffset:900;animation:dash 20s linear infinite;stroke-linecap:round;}#my-svg .error-icon{fill:#552222;}#my-svg .error-text{fill:#552222;stroke:#552222;}#my-svg .edge-thickness-normal{stroke-width:1px;}#my-svg .edge-thickness-thick{stroke-width:3.5px;}#my-svg .edge-pattern-solid{stroke-dasharray:0;}#my-svg .edge-thickness-invisible{stroke-width:0;fill:none;}#my-svg .edge-pattern-dashed{stroke-dasharray:3;}#my-svg .edge-pattern-dotted{stroke-dasharray:2;}#my-svg .marker{fill:#333333;stroke:#333333;}#my-svg .marker.cross{stroke:#333333;}#my-svg svg{font-family:"trebuchet ms",verdana,arial,sans-serif;font-size:16px;}#my-svg p{margin:0;}#my-svg .label{font-family:"trebuchet ms",verdana,arial,sans-serif;color:#333;}#my-svg .cluster-label text{fill:#333;}#my-svg .cluster-label span{color:#333;}#my-svg .cluster-label span p{background-color:transparent;}#my-svg .label text,#my-svg span{fill:#333;color:#333;}#my-svg .node rect,#my-svg .node circle,#my-svg .node ellipse,#my-svg .node polygon,#my-svg .node path{fill:#ECECFF;stroke:#9370DB;stroke-width:1px;}#my-svg .rough-node .label text,#my-svg .node .label text,#my-svg .image-shape .label,#my-svg .icon-shape .label{text-anchor:middle;}#my-svg .node .katex path{fill:#000;stroke:#000;stroke-width:1px;}#my-svg .rough-node .label,#my-svg .node .label,#my-svg .image-shape .label,#my-svg .icon-shape .label{text-align:center;}#my-svg .node.clickable{cursor:pointer;}#my-svg .root .anchor path{fill:#333333!important;stroke-width:0;stroke:#333333;}#my-svg .arrowheadPath{fill:#333333;}#my-svg .edgePath .path{stroke:#333333;stroke-width:1px;}#my-svg .flowchart-link{stroke:#333333;fill:none;}#my-svg .edgeLabel{background-color:rgba(232,232,232, 0.8);text-align:center;}#my-svg .edgeLabel p{background-color:rgba(232,232,232, 0.8);}#my-svg .edgeLabel rect{opacity:0.5;background-color:rgba(232,232,232, 0.8);fill:rgba(232,232,232, 0.8);}#my-svg .labelBkg{background-color:rgba(232, 232, 232, 0.5);}#my-svg .cluster rect{fill:#ffffde;stroke:#aaaa33;stroke-width:1px;}#my-svg .cluster text{fill:#333;}#my-svg .cluster span{color:#333;}#my-svg div.mermaidTooltip{position:absolute;text-align:center;max-width:200px;padding:2px;font-family:"trebuchet ms",verdana,arial,sans-serif;font-size:12px;background:hsl(80, 100%, 96.2745098039%);border:1px solid #aaaa33;border-radius:2px;pointer-events:none;z-index:100;}#my-svg .flowchartTitleText{text-anchor:middle;font-size:18px;fill:#333;}#my-svg rect.text{fill:none;stroke-width:0;}#my-svg .icon-shape,#my-svg .image-shape{background-color:rgba(232,232,232, 0.8);text-align:center;}#my-svg .icon-shape p,#my-svg .image-shape p{background-color:rgba(232,232,232, 0.8);padding:2px;}#my-svg .icon-shape .label rect,#my-svg .image-shape .label rect{opacity:0.5;background-color:rgba(232,232,232, 0.8);fill:rgba(232,232,232, 0.8);}#my-svg .label-icon{display:inline-block;height:1em;overflow:visible;vertical-align:-0.125em;}#my-svg .node .label-icon path{fill:currentColor;stroke:revert;stroke-width:revert;}#my-svg .node .neo-node{stroke:#9370DB;}#my-svg [data-look="neo"].node rect,#my-svg [data-look="neo"].cluster rect,#my-svg [data-look="neo"].node polygon{stroke:#9370DB;filter:drop-shadow(1px 2px 2px rgba(185, 185, 185, 1));}#my-svg [data-look="neo"].node path{stroke:#9370DB;stroke-width:1px;}#my-svg [data-look="neo"].node .outer-path{filter:drop-shadow(1px 2px 2px rgba(185, 185, 185, 1));}#my-svg [data-look="neo"].node .neo-line path{stroke:#9370DB;filter:none;}#my-svg [data-look="neo"].node circle{stroke:#9370DB;filter:drop-shadow(1px 2px 2px rgba(185, 185, 185, 1));}#my-svg [data-look="neo"].node circle .state-start{fill:#000000;}#my-svg [data-look="neo"].icon-shape .icon{fill:#9370DB;filter:drop-shadow(1px 2px 2px rgba(185, 185, 185, 1));}#my-svg [data-look="neo"].icon-shape .icon-neo path{stroke:#9370DB;filter:drop-shadow(1px 2px 2px rgba(185, 185, 185, 1));}#my-svg :root{--mermaid-font-family:"trebuchet ms",verdana,arial,sans-serif;}</style><g><marker id="my-svg_flowchart-v2-pointEnd" class="marker flowchart-v2" viewBox="0 0 10 10" refX="5" refY="5" markerUnits="userSpaceOnUse" markerWidth="8" markerHeight="8" orient="auto"><path d="M 0 0 L 10 5 L 0 10 z" class="arrowMarkerPath" style="stroke-width: 1; stroke-dasharray: 1, 0;"/></marker><marker id="my-svg_flowchart-v2-pointStart" class="marker flowchart-v2" viewBox="0 0 10 10" refX="4.5" refY="5" markerUnits="userSpaceOnUse" markerWidth="8" markerHeight="8" orient="auto"><path d="M 0 5 L 10 10 L 10 0 z" class="arrowMarkerPath" style="stroke-width: 1; stroke-dasharray: 1, 0;"/></marker><marker id="my-svg_flowchart-v2-pointEnd-margin" class="marker flowchart-v2" viewBox="0 0 11.5 14" refX="11.5" refY="7" markerUnits="userSpaceOnUse" markerWidth="10.5" markerHeight="14" orient="auto"><path d="M 0 0 L 11.5 7 L 0 14 z" class="arrowMarkerPath" style="stroke-width: 0; stroke-dasharray: 1, 0;"/></marker><marker id="my-svg_flowchart-v2-pointStart-margin" class="marker flowchart-v2" viewBox="0 0 11.5 14" refX="1" refY="7" markerUnits="userSpaceOnUse" markerWidth="11.5" markerHeight="14" orient="auto"><polygon points="0,7 11.5,14 11.5,0" class="arrowMarkerPath" style="stroke-width: 0; stroke-dasharray: 1, 0;"/></marker><marker id="my-svg_flowchart-v2-circleEnd" class="marker flowchart-v2" viewBox="0 0 10 10" refX="11" refY="5" markerUnits="userSpaceOnUse" markerWidth="11" markerHeight="11" orient="auto"><circle cx="5" cy="5" r="5" class="arrowMarkerPath" style="stroke-width: 1; stroke-dasharray: 1, 0;"/></marker><marker id="my-svg_flowchart-v2-circleStart" class="marker flowchart-v2" viewBox="0 0 10 10" refX="-1" refY="5" markerUnits="userSpaceOnUse" markerWidth="11" markerHeight="11" orient="auto"><circle cx="5" cy="5" r="5" class="arrowMarkerPath" style="stroke-width: 1; stroke-dasharray: 1, 0;"/></marker><marker id="my-svg_flowchart-v2-circleEnd-margin" class="marker flowchart-v2" viewBox="0 0 10 10" refY="5" refX="12.25" markerUnits="userSpaceOnUse" markerWidth="14" markerHeight="14" orient="auto"><circle cx="5" cy="5" r="5" class="arrowMarkerPath" style="stroke-width: 0; stroke-dasharray: 1, 0;"/></marker><marker id="my-svg_flowchart-v2-circleStart-margin" class="marker flowchart-v2" viewBox="0 0 10 10" refX="-2" refY="5" markerUnits="userSpaceOnUse" markerWidth="14" markerHeight="14" orient="auto"><circle cx="5" cy="5" r="5" class="arrowMarkerPath" style="stroke-width: 0; stroke-dasharray: 1, 0;"/></marker><marker id="my-svg_flowchart-v2-crossEnd" class="marker cross flowchart-v2" viewBox="0 0 11 11" refX="12" refY="5.2" markerUnits="userSpaceOnUse" markerWidth="11" markerHeight="11" orient="auto"><path d="M 1,1 l 9,9 M 10,1 l -9,9" class="arrowMarkerPath" style="stroke-width: 2; stroke-dasharray: 1, 0;"/></marker><marker id="my-svg_flowchart-v2-crossStart" class="marker cross flowchart-v2" viewBox="0 0 11 11" refX="-1" refY="5.2" markerUnits="userSpaceOnUse" markerWidth="11" markerHeight="11" orient="auto"><path d="M 1,1 l 9,9 M 10,1 l -9,9" class="arrowMarkerPath" style="stroke-width: 2; stroke-dasharray: 1, 0;"/></marker><marker id="my-svg_flowchart-v2-crossEnd-margin" class="marker cross flowchart-v2" viewBox="0 0 15 15" refX="17.7" refY="7.5" markerUnits="userSpaceOnUse" markerWidth="12" markerHeight="12" orient="auto"><path d="M 1,1 L 14,14 M 1,14 L 14,1" class="arrowMarkerPath" style="stroke-width: 2.5;"/></marker><marker id="my-svg_flowchart-v2-crossStart-margin" class="marker cross flowchart-v2" viewBox="0 0 15 15" refX="-3.5" refY="7.5" markerUnits="userSpaceOnUse" markerWidth="12" markerHeight="12" orient="auto"><path d="M 1,1 L 14,14 M 1,14 L 14,1" class="arrowMarkerPath" style="stroke-width: 2.5; stroke-dasharray: 1, 0;"/></marker><g class="root"><g class="clusters"/><g class="edgePaths"><path d="M2056.484,43.317L2000.48,50.597C1944.477,57.878,1832.469,72.439,1776.465,83.886C1720.461,95.333,1720.461,103.667,1720.461,107.833L1720.461,112" id="my-svg-L_Customer_Waiter_0" class="edge-thickness-normal edge-pattern-solid edge-thickness-normal edge-pattern-solid flowchart-link" style=";" data-edge="true" data-et="edge" data-id="L_Customer_Waiter_0" data-points="W3sieCI6MjA1Ni40ODQzNzUsInkiOjQzLjMxNjk1MzEyNX0seyJ4IjoxNzIwLjQ2MDkzNzUsInkiOjg3fSx7IngiOjE3MjAuNDYwOTM3NSwieSI6MTEyfV0=" data-look="classic"/><path d="M1666.961,149.936L1633.478,156.78C1599.995,163.624,1533.029,177.312,1499.546,188.323C1466.063,199.333,1466.063,207.667,1466.063,211.833L1466.063,216" id="my-svg-L_Waiter_Kitchen_0" class="edge-thickness-normal edge-pattern-solid edge-thickness-normal edge-pattern-solid flowchart-link" style=";" data-edge="true" data-et="edge" data-id="L_Waiter_Kitchen_0" data-points="W3sieCI6MTY2Ni45NjA5Mzc1LCJ5IjoxNDkuOTM1NjAxNzU2NTk0OX0seyJ4IjoxNDY2LjA2MjUsInkiOjE5MX0seyJ4IjoxNDY2LjA2MjUsInkiOjIxNn1d" data-look="classic"/><path d="M1389.641,260.738L1365.038,266.448C1340.435,272.158,1291.229,283.579,1266.626,293.456C1242.023,303.333,1242.023,311.667,1242.023,315.833L1242.023,320" id="my-svg-L_Kitchen_Bar_0" class="edge-thickness-normal edge-pattern-solid edge-thickness-normal edge-pattern-solid flowchart-link" style=";" data-edge="true" data-et="edge" data-id="L_Kitchen_Bar_0" data-points="W3sieCI6MTM4OS42NDA2MjUsInkiOjI2MC43Mzc2OTkyMDE0NTA2NX0seyJ4IjoxMjQyLjAyMzQzNzUsInkiOjI5NX0seyJ4IjoxMjQyLjAyMzQzNzUsInkiOjMyMH1d" data-look="classic"/><path d="M1180.633,352.107L1086.677,359.922C992.721,367.738,804.81,383.369,710.854,395.351C616.898,407.333,616.898,415.667,616.898,419.833L616.898,424" id="my-svg-L_Bar_Cashier_0" class="edge-thickness-normal edge-pattern-solid edge-thickness-normal edge-pattern-solid flowchart-link" style=";" data-edge="true" data-et="edge" data-id="L_Bar_Cashier_0" data-points="W3sieCI6MTE4MC42MzI4MTI1LCJ5IjozNTIuMTA2Njc4NjY0MjY3MX0seyJ4Ijo2MTYuODk4NDM3NSwieSI6Mzk5fSx7IngiOjYxNi44OTg0Mzc1LCJ5Ijo0MjR9XQ==" data-look="classic"/><path d="M560.547,470.575L527.716,481.979C494.885,493.383,429.224,516.192,396.393,537.762C363.563,559.333,363.563,579.667,363.563,589.833L363.563,600" id="my-svg-L_Cashier_POS_0" class="edge-thickness-normal edge-pattern-solid edge-thickness-normal edge-pattern-solid flowchart-link" style=";" data-edge="true" data-et="edge" data-id="L_Cashier_POS_0" data-points="W3sieCI6NTYwLjU0Njg3NSwieSI6NDcwLjU3NDU1MjA3MDgwNTE3fSx7IngiOjM2My41NjI1LCJ5Ijo1Mzl9LHsieCI6MzYzLjU2MjUsInkiOjYwMH1d" data-look="classic"/><path d="M287.578,646.001L257.587,653.501C227.596,661.001,167.615,676,137.624,689.667C107.633,703.333,107.633,715.667,107.633,721.833L107.633,728" id="my-svg-L_POS_Mobile_0" class="edge-thickness-normal edge-pattern-solid edge-thickness-normal edge-pattern-solid flowchart-link" style=";" data-edge="true" data-et="edge" data-id="L_POS_Mobile_0" data-points="W3sieCI6Mjg3LjU3ODEyNSwieSI6NjQ2LjAwMTMxMjYxNjM4MDJ9LHsieCI6MTA3LjYzMjgxMjUsInkiOjY5MX0seyJ4IjoxMDcuNjMyODEyNSwieSI6NzI4fV0=" data-look="classic"/><path d="M99.195,782L97.268,788.167C95.341,794.333,91.487,806.667,229.808,822.584C368.129,838.501,648.625,858.003,788.873,867.754L929.121,877.504" id="my-svg-L_Mobile_Admin_0" class="edge-thickness-normal edge-pattern-solid edge-thickness-normal edge-pattern-solid flowchart-link" style=";" data-edge="true" data-et="edge" data-id="L_Mobile_Admin_0" data-points="W3sieCI6OTkuMTk1MzEyNSwieSI6NzgyfSx7IngiOjg3LjYzMjgxMjUsInkiOjgxOX0seyJ4Ijo5MjkuMTIxMDkzNzUsInkiOjg3Ny41MDQyODM3NjgzNTgzfV0=" data-look="classic"/><path d="M1087.215,878.685L1269.423,868.737C1451.63,858.79,1816.046,838.895,1998.253,818.281C2180.461,797.667,2180.461,776.333,2180.461,755C2180.461,733.667,2180.461,712.333,2180.461,691C2180.461,669.667,2180.461,648.333,2180.461,623C2180.461,597.667,2180.461,568.333,2180.461,539C2180.461,509.667,2180.461,480.333,2180.461,457C2180.461,433.667,2180.461,416.333,2180.461,399C2180.461,381.667,2180.461,364.333,2180.461,347C2180.461,329.667,2180.461,312.333,2180.461,295C2180.461,277.667,2180.461,260.333,2180.461,243C2180.461,225.667,2180.461,208.333,2180.461,191C2180.461,173.667,2180.461,156.333,2180.461,139C2180.461,121.667,2180.461,104.333,2175.653,91.5C2170.846,78.667,2161.23,70.333,2156.422,66.167L2151.615,62" id="my-svg-L_Admin_Customer_0" class="edge-thickness-normal edge-pattern-solid edge-thickness-normal edge-pattern-solid flowchart-link" style=";" data-edge="true" data-et="edge" data-id="L_Admin_Customer_0" data-points="W3sieCI6MTA4Ny4yMTQ4NDM3NSwieSI6ODc4LjY4NDUyNTg1MjQ0Nn0seyJ4IjoyMTgwLjQ2MDkzNzUsInkiOjgxOX0seyJ4IjoyMTgwLjQ2MDkzNzUsInkiOjc1NX0seyJ4IjoyMTgwLjQ2MDkzNzUsInkiOjY5MX0seyJ4IjoyMTgwLjQ2MDkzNzUsInkiOjYyN30seyJ4IjoyMTgwLjQ2MDkzNzUsInkiOjUzOX0seyJ4IjoyMTgwLjQ2MDkzNzUsInkiOjQ1MX0seyJ4IjoyMTgwLjQ2MDkzNzUsInkiOjM5OX0seyJ4IjoyMTgwLjQ2MDkzNzUsInkiOjM0N30seyJ4IjoyMTgwLjQ2MDkzNzUsInkiOjI5NX0seyJ4IjoyMTgwLjQ2MDkzNzUsInkiOjI0M30seyJ4IjoyMTgwLjQ2MDkzNzUsInkiOjE5MX0seyJ4IjoyMTgwLjQ2MDkzNzUsInkiOjEzOX0seyJ4IjoyMTgwLjQ2MDkzNzUsInkiOjg3fSx7IngiOjIxNTEuNjE0NzgzNjUzODQ2LCJ5Ijo2Mn1d" data-look="classic"/><path d="M2089.307,62L2084.499,66.167C2079.692,70.333,2070.076,78.667,2065.269,91.5C2060.461,104.333,2060.461,121.667,2060.461,139C2060.461,156.333,2060.461,173.667,2060.461,191C2060.461,208.333,2060.461,225.667,2060.461,243C2060.461,260.333,2060.461,277.667,2060.461,295C2060.461,312.333,2060.461,329.667,2060.461,347C2060.461,364.333,2060.461,381.667,2060.461,399C2060.461,416.333,2060.461,433.667,2060.461,457C2060.461,480.333,2060.461,509.667,2060.461,539C2060.461,568.333,2060.461,597.667,2060.461,623C2060.461,648.333,2060.461,669.667,2060.461,691C2060.461,712.333,2060.461,733.667,2060.461,755C2060.461,776.333,2060.461,797.667,2060.461,819C2060.461,840.333,2060.461,861.667,2060.461,885C2060.461,908.333,2060.461,933.667,1921.846,961.4C1783.23,989.133,1505.999,1019.266,1367.384,1034.332L1228.768,1049.399" id="my-svg-L_Customer_System_0" class="edge-thickness-normal edge-pattern-solid edge-thickness-normal edge-pattern-solid flowchart-link" style=";" data-edge="true" data-et="edge" data-id="L_Customer_System_0" data-points="W3sieCI6MjA4OS4zMDcwOTEzNDYxNTQsInkiOjYyfSx7IngiOjIwNjAuNDYwOTM3NSwieSI6ODd9LHsieCI6MjA2MC40NjA5Mzc1LCJ5IjoxMzl9LHsieCI6MjA2MC40NjA5Mzc1LCJ5IjoxOTF9LHsieCI6MjA2MC40NjA5Mzc1LCJ5IjoyNDN9LHsieCI6MjA2MC40NjA5Mzc1LCJ5IjoyOTV9LHsieCI6MjA2MC40NjA5Mzc1LCJ5IjozNDd9LHsieCI6MjA2MC40NjA5Mzc1LCJ5IjozOTl9LHsieCI6MjA2MC40NjA5Mzc1LCJ5Ijo0NTF9LHsieCI6MjA2MC40NjA5Mzc1LCJ5Ijo1Mzl9LHsieCI6MjA2MC40NjA5Mzc1LCJ5Ijo2Mjd9LHsieCI6MjA2MC40NjA5Mzc1LCJ5Ijo2OTF9LHsieCI6MjA2MC40NjA5Mzc1LCJ5Ijo3NTV9LHsieCI6MjA2MC40NjA5Mzc1LCJ5Ijo4MTl9LHsieCI6MjA2MC40NjA5Mzc1LCJ5Ijo4ODN9LHsieCI6MjA2MC40NjA5Mzc1LCJ5Ijo5NTl9LHsieCI6MTIyNC43OTE4MDc1ODkzNjY1LCJ5IjoxMDQ5LjgzMDc4NTk5MDQ1NDh9XQ==" data-look="classic" marker-end="url(#my-svg_flowchart-v2-pointEnd)"/><path d="M1224.896,1050.906L1404.157,1035.588C1583.418,1020.27,1941.939,989.635,2121.2,961.651C2300.461,933.667,2300.461,908.333,2300.461,885C2300.461,861.667,2300.461,840.333,2300.461,819C2300.461,797.667,2300.461,776.333,2300.461,755C2300.461,733.667,2300.461,712.333,2300.461,691C2300.461,669.667,2300.461,648.333,2300.461,623C2300.461,597.667,2300.461,568.333,2300.461,539C2300.461,509.667,2300.461,480.333,2300.461,457C2300.461,433.667,2300.461,416.333,2300.461,399C2300.461,381.667,2300.461,364.333,2300.461,347C2300.461,329.667,2300.461,312.333,2300.461,295C2300.461,277.667,2300.461,260.333,2300.461,243C2300.461,225.667,2300.461,208.333,2300.461,191C2300.461,173.667,2300.461,156.333,2300.461,139C2300.461,121.667,2300.461,104.333,2281.764,90.265C2263.067,76.197,2225.674,65.395,2206.977,59.994L2188.28,54.592" id="my-svg-L_System_Customer_0" class="edge-thickness-normal edge-pattern-solid edge-thickness-normal edge-pattern-solid flowchart-link" style=";" data-edge="true" data-et="edge" data-id="L_System_Customer_0" data-points="W3sieCI6MTIyNC44OTYxMjQyOTE4NDY1LCJ5IjoxMDUwLjkwNTU3ODkyNTE5Mn0seyJ4IjoyMzAwLjQ2MDkzNzUsInkiOjk1OX0seyJ4IjoyMzAwLjQ2MDkzNzUsInkiOjg4M30seyJ4IjoyMzAwLjQ2MDkzNzUsInkiOjgxOX0seyJ4IjoyMzAwLjQ2MDkzNzUsInkiOjc1NX0seyJ4IjoyMzAwLjQ2MDkzNzUsInkiOjY5MX0seyJ4IjoyMzAwLjQ2MDkzNzUsInkiOjYyN30seyJ4IjoyMzAwLjQ2MDkzNzUsInkiOjUzOX0seyJ4IjoyMzAwLjQ2MDkzNzUsInkiOjQ1MX0seyJ4IjoyMzAwLjQ2MDkzNzUsInkiOjM5OX0seyJ4IjoyMzAwLjQ2MDkzNzUsInkiOjM0N30seyJ4IjoyMzAwLjQ2MDkzNzUsInkiOjI5NX0seyJ4IjoyMzAwLjQ2MDkzNzUsInkiOjI0M30seyJ4IjoyMzAwLjQ2MDkzNzUsInkiOjE5MX0seyJ4IjoyMzAwLjQ2MDkzNzUsInkiOjEzOX0seyJ4IjoyMzAwLjQ2MDkzNzUsInkiOjg3fSx7IngiOjIxODQuNDM3NSwieSI6NTMuNDgyMTE4MDU1NTU1NTZ9XQ==" data-look="classic" marker-end="url(#my-svg_flowchart-v2-pointEnd)"/><path d="M1720.461,166L1720.461,170.167C1720.461,174.333,1720.461,182.667,1720.461,195.5C1720.461,208.333,1720.461,225.667,1720.461,243C1720.461,260.333,1720.461,277.667,1720.461,295C1720.461,312.333,1720.461,329.667,1720.461,347C1720.461,364.333,1720.461,381.667,1720.461,399C1720.461,416.333,1720.461,433.667,1720.461,457C1720.461,480.333,1720.461,509.667,1720.461,539C1720.461,568.333,1720.461,597.667,1720.461,623C1720.461,648.333,1720.461,669.667,1720.461,691C1720.461,712.333,1720.461,733.667,1720.461,755C1720.461,776.333,1720.461,797.667,1720.461,819C1720.461,840.333,1720.461,861.667,1720.461,885C1720.461,908.333,1720.461,933.667,1638.432,960.839C1556.404,988.012,1392.346,1017.023,1310.317,1031.529L1228.289,1046.035" id="my-svg-L_Waiter_System_0" class="edge-thickness-normal edge-pattern-solid edge-thickness-normal edge-pattern-solid flowchart-link" style=";" data-edge="true" data-et="edge" data-id="L_Waiter_System_0" data-points="W3sieCI6MTcyMC40NjA5Mzc1LCJ5IjoxNjZ9LHsieCI6MTcyMC40NjA5Mzc1LCJ5IjoxOTF9LHsieCI6MTcyMC40NjA5Mzc1LCJ5IjoyNDN9LHsieCI6MTcyMC40NjA5Mzc1LCJ5IjoyOTV9LHsieCI6MTcyMC40NjA5Mzc1LCJ5IjozNDd9LHsieCI6MTcyMC40NjA5Mzc1LCJ5IjozOTl9LHsieCI6MTcyMC40NjA5Mzc1LCJ5Ijo0NTF9LHsieCI6MTcyMC40NjA5Mzc1LCJ5Ijo1Mzl9LHsieCI6MTcyMC40NjA5Mzc1LCJ5Ijo2Mjd9LHsieCI6MTcyMC40NjA5Mzc1LCJ5Ijo2OTF9LHsieCI6MTcyMC40NjA5Mzc1LCJ5Ijo3NTV9LHsieCI6MTcyMC40NjA5Mzc1LCJ5Ijo4MTl9LHsieCI6MTcyMC40NjA5Mzc1LCJ5Ijo4ODN9LHsieCI6MTcyMC40NjA5Mzc1LCJ5Ijo5NTl9LHsieCI6MTIyNC4zNDk4NjU3OTE2MjcsInkiOjEwNDYuNzMxNjg2Mjc0NTc1OH1d" data-look="classic" marker-end="url(#my-svg_flowchart-v2-pointEnd)"/><path d="M1224.7,1049.045L1343.993,1034.037C1463.287,1019.03,1701.874,989.015,1821.167,961.341C1940.461,933.667,1940.461,908.333,1940.461,885C1940.461,861.667,1940.461,840.333,1940.461,819C1940.461,797.667,1940.461,776.333,1940.461,755C1940.461,733.667,1940.461,712.333,1940.461,691C1940.461,669.667,1940.461,648.333,1940.461,623C1940.461,597.667,1940.461,568.333,1940.461,539C1940.461,509.667,1940.461,480.333,1940.461,457C1940.461,433.667,1940.461,416.333,1940.461,399C1940.461,381.667,1940.461,364.333,1940.461,347C1940.461,329.667,1940.461,312.333,1940.461,295C1940.461,277.667,1940.461,260.333,1940.461,243C1940.461,225.667,1940.461,208.333,1913.36,193.261C1886.259,178.189,1832.056,165.377,1804.955,158.971L1777.854,152.566" id="my-svg-L_System_Waiter_0" class="edge-thickness-normal edge-pattern-solid edge-thickness-normal edge-pattern-solid flowchart-link" style=";" data-edge="true" data-et="edge" data-id="L_System_Waiter_0" data-points="W3sieCI6MTIyNC42OTk2Mzk3MzUwNjksInkiOjEwNDkuMDQ0NjMyMzAzNDg5NH0seyJ4IjoxOTQwLjQ2MDkzNzUsInkiOjk1OX0seyJ4IjoxOTQwLjQ2MDkzNzUsInkiOjg4M30seyJ4IjoxOTQwLjQ2MDkzNzUsInkiOjgxOX0seyJ4IjoxOTQwLjQ2MDkzNzUsInkiOjc1NX0seyJ4IjoxOTQwLjQ2MDkzNzUsInkiOjY5MX0seyJ4IjoxOTQwLjQ2MDkzNzUsInkiOjYyN30seyJ4IjoxOTQwLjQ2MDkzNzUsInkiOjUzOX0seyJ4IjoxOTQwLjQ2MDkzNzUsInkiOjQ1MX0seyJ4IjoxOTQwLjQ2MDkzNzUsInkiOjM5OX0seyJ4IjoxOTQwLjQ2MDkzNzUsInkiOjM0N30seyJ4IjoxOTQwLjQ2MDkzNzUsInkiOjI5NX0seyJ4IjoxOTQwLjQ2MDkzNzUsInkiOjI0M30seyJ4IjoxOTQwLjQ2MDkzNzUsInkiOjE5MX0seyJ4IjoxNzczLjk2MDkzNzUsInkiOjE1MS42NDU0NTQ1NDU0NTQ1Nn1d" data-look="classic" marker-end="url(#my-svg_flowchart-v2-pointEnd)"/><path d="M1223.902,1044.513L1286.662,1030.261C1349.422,1016.008,1474.941,987.504,1537.701,960.585C1600.461,933.667,1600.461,908.333,1600.461,885C1600.461,861.667,1600.461,840.333,1600.461,819C1600.461,797.667,1600.461,776.333,1600.461,755C1600.461,733.667,1600.461,712.333,1600.461,691C1600.461,669.667,1600.461,648.333,1600.461,623C1600.461,597.667,1600.461,568.333,1600.461,539C1600.461,509.667,1600.461,480.333,1600.461,457C1600.461,433.667,1600.461,416.333,1600.461,399C1600.461,381.667,1600.461,364.333,1600.461,347C1600.461,329.667,1600.461,312.333,1590.314,299.741C1580.166,287.148,1559.872,279.296,1549.724,275.369L1539.577,271.443" id="my-svg-L_System_Kitchen_0" class="edge-thickness-normal edge-pattern-solid edge-thickness-normal edge-pattern-solid flowchart-link" style=";" data-edge="true" data-et="edge" data-id="L_System_Kitchen_0" data-points="W3sieCI6MTIyMy45MDE5ODMwNTI0NjUsInkiOjEwNDQuNTEyNzA4MDczMzYyM30seyJ4IjoxNjAwLjQ2MDkzNzUsInkiOjk1OX0seyJ4IjoxNjAwLjQ2MDkzNzUsInkiOjg4M30seyJ4IjoxNjAwLjQ2MDkzNzUsInkiOjgxOX0seyJ4IjoxNjAwLjQ2MDkzNzUsInkiOjc1NX0seyJ4IjoxNjAwLjQ2MDkzNzUsInkiOjY5MX0seyJ4IjoxNjAwLjQ2MDkzNzUsInkiOjYyN30seyJ4IjoxNjAwLjQ2MDkzNzUsInkiOjUzOX0seyJ4IjoxNjAwLjQ2MDkzNzUsInkiOjQ1MX0seyJ4IjoxNjAwLjQ2MDkzNzUsInkiOjM5OX0seyJ4IjoxNjAwLjQ2MDkzNzUsInkiOjM0N30seyJ4IjoxNjAwLjQ2MDkzNzUsInkiOjI5NX0seyJ4IjoxNTM1Ljg0NjMwNDA4NjUzODYsInkiOjI3MH1d" data-look="classic" marker-end="url(#my-svg_flowchart-v2-pointEnd)"/><path d="M1466.063,270L1466.063,274.167C1466.063,278.333,1466.063,286.667,1466.063,299.5C1466.063,312.333,1466.063,329.667,1466.063,347C1466.063,364.333,1466.063,381.667,1466.063,399C1466.063,416.333,1466.063,433.667,1466.063,457C1466.063,480.333,1466.063,509.667,1466.063,539C1466.063,568.333,1466.063,597.667,1466.063,623C1466.063,648.333,1466.063,669.667,1466.063,691C1466.063,712.333,1466.063,733.667,1466.063,755C1466.063,776.333,1466.063,797.667,1466.063,819C1466.063,840.333,1466.063,861.667,1466.063,885C1466.063,908.333,1466.063,933.667,1426.128,959.635C1386.194,985.604,1306.326,1012.209,1266.392,1025.511L1226.458,1038.813" id="my-svg-L_Kitchen_System_0" class="edge-thickness-normal edge-pattern-solid edge-thickness-normal edge-pattern-solid flowchart-link" style=";" data-edge="true" data-et="edge" data-id="L_Kitchen_System_0" data-points="W3sieCI6MTQ2Ni4wNjI1LCJ5IjoyNzB9LHsieCI6MTQ2Ni4wNjI1LCJ5IjoyOTV9LHsieCI6MTQ2Ni4wNjI1LCJ5IjozNDd9LHsieCI6MTQ2Ni4wNjI1LCJ5IjozOTl9LHsieCI6MTQ2Ni4wNjI1LCJ5Ijo0NTF9LHsieCI6MTQ2Ni4wNjI1LCJ5Ijo1Mzl9LHsieCI6MTQ2Ni4wNjI1LCJ5Ijo2Mjd9LHsieCI6MTQ2Ni4wNjI1LCJ5Ijo2OTF9LHsieCI6MTQ2Ni4wNjI1LCJ5Ijo3NTV9LHsieCI6MTQ2Ni4wNjI1LCJ5Ijo4MTl9LHsieCI6MTQ2Ni4wNjI1LCJ5Ijo4ODN9LHsieCI6MTQ2Ni4wNjI1LCJ5Ijo5NTl9LHsieCI6MTIyMi42NjI4MTExMjkyNDMsInkiOjEwNDAuMDc3MDg2NjMwODA2N31d" data-look="classic" marker-end="url(#my-svg_flowchart-v2-pointEnd)"/><path d="M1220.425,1034.557L1246.585,1021.964C1272.744,1009.371,1325.064,984.186,1351.223,958.926C1377.383,933.667,1377.383,908.333,1377.383,885C1377.383,861.667,1377.383,840.333,1377.383,819C1377.383,797.667,1377.383,776.333,1377.383,755C1377.383,733.667,1377.383,712.333,1377.383,691C1377.383,669.667,1377.383,648.333,1377.383,623C1377.383,597.667,1377.383,568.333,1377.383,539C1377.383,509.667,1377.383,480.333,1377.383,457C1377.383,433.667,1377.383,416.333,1365.677,403.17C1353.971,390.006,1330.56,381.012,1318.854,376.515L1307.148,372.018" id="my-svg-L_System_Bar_0" class="edge-thickness-normal edge-pattern-solid edge-thickness-normal edge-pattern-solid flowchart-link" style=";" data-edge="true" data-et="edge" data-id="L_System_Bar_0" data-points="W3sieCI6MTIyMC40MjUxODI0NDYzMDU0LCJ5IjoxMDM0LjU1NjU3NTk2ODUxMzJ9LHsieCI6MTM3Ny4zODI4MTI1LCJ5Ijo5NTl9LHsieCI6MTM3Ny4zODI4MTI1LCJ5Ijo4ODN9LHsieCI6MTM3Ny4zODI4MTI1LCJ5Ijo4MTl9LHsieCI6MTM3Ny4zODI4MTI1LCJ5Ijo3NTV9LHsieCI6MTM3Ny4zODI4MTI1LCJ5Ijo2OTF9LHsieCI6MTM3Ny4zODI4MTI1LCJ5Ijo2Mjd9LHsieCI6MTM3Ny4zODI4MTI1LCJ5Ijo1Mzl9LHsieCI6MTM3Ny4zODI4MTI1LCJ5Ijo0NTF9LHsieCI6MTM3Ny4zODI4MTI1LCJ5IjozOTl9LHsieCI6MTMwMy40MTQwNjI1LCJ5IjozNzAuNTgzOTc3ODM2Nzc3MX1d" data-look="classic" marker-end="url(#my-svg_flowchart-v2-pointEnd)"/><path d="M1242.023,374L1242.023,378.167C1242.023,382.333,1242.023,390.667,1242.023,403.5C1242.023,416.333,1242.023,433.667,1242.023,457C1242.023,480.333,1242.023,509.667,1242.023,539C1242.023,568.333,1242.023,597.667,1242.023,623C1242.023,648.333,1242.023,669.667,1242.023,691C1242.023,712.333,1242.023,733.667,1242.023,755C1242.023,776.333,1242.023,797.667,1242.023,819C1242.023,840.333,1242.023,861.667,1242.023,885C1242.023,908.333,1242.023,933.667,1236.083,955.255C1230.142,976.844,1218.26,994.688,1212.319,1003.611L1206.378,1012.533" id="my-svg-L_Bar_System_0" class="edge-thickness-normal edge-pattern-solid edge-thickness-normal edge-pattern-solid flowchart-link" style=";" data-edge="true" data-et="edge" data-id="L_Bar_System_0" data-points="W3sieCI6MTI0Mi4wMjM0Mzc1LCJ5IjozNzR9LHsieCI6MTI0Mi4wMjM0Mzc1LCJ5IjozOTl9LHsieCI6MTI0Mi4wMjM0Mzc1LCJ5Ijo0NTF9LHsieCI6MTI0Mi4wMjM0Mzc1LCJ5Ijo1Mzl9LHsieCI6MTI0Mi4wMjM0Mzc1LCJ5Ijo2Mjd9LHsieCI6MTI0Mi4wMjM0Mzc1LCJ5Ijo2OTF9LHsieCI6MTI0Mi4wMjM0Mzc1LCJ5Ijo3NTV9LHsieCI6MTI0Mi4wMjM0Mzc1LCJ5Ijo4MTl9LHsieCI6MTI0Mi4wMjM0Mzc1LCJ5Ijo4ODN9LHsieCI6MTI0Mi4wMjM0Mzc1LCJ5Ijo5NTl9LHsieCI6MTIwNC4xNjA4ODc3NzgzLCJ5IjoxMDE1Ljg2MjE1MTgxMTgxNDR9XQ==" data-look="classic" marker-end="url(#my-svg_flowchart-v2-pointEnd)"/><path d="M616.898,478L616.898,488.167C616.898,498.333,616.898,518.667,616.898,543.5C616.898,568.333,616.898,597.667,616.898,623C616.898,648.333,616.898,669.667,616.898,691C616.898,712.333,616.898,733.667,616.898,755C616.898,776.333,616.898,797.667,616.898,819C616.898,840.333,616.898,861.667,616.898,885C616.898,908.333,616.898,933.667,702.081,960.888C787.264,988.109,957.631,1017.217,1042.814,1031.772L1127.997,1046.326" id="my-svg-L_Cashier_System_0" class="edge-thickness-normal edge-pattern-solid edge-thickness-normal edge-pattern-solid flowchart-link" style=";" data-edge="true" data-et="edge" data-id="L_Cashier_System_0" data-points="W3sieCI6NjE2Ljg5ODQzNzUsInkiOjQ3OH0seyJ4Ijo2MTYuODk4NDM3NSwieSI6NTM5fSx7IngiOjYxNi44OTg0Mzc1LCJ5Ijo2Mjd9LHsieCI6NjE2Ljg5ODQzNzUsInkiOjY5MX0seyJ4Ijo2MTYuODk4NDM3NSwieSI6NzU1fSx7IngiOjYxNi44OTg0Mzc1LCJ5Ijo4MTl9LHsieCI6NjE2Ljg5ODQzNzUsInkiOjg4M30seyJ4Ijo2MTYuODk4NDM3NSwieSI6OTU5fSx7IngiOjExMzEuOTM5NDUzODM4MTUyLCJ5IjoxMDQ2Ljk5OTgzOTU4NzMwM31d" data-look="classic" marker-end="url(#my-svg_flowchart-v2-pointEnd)"/><path d="M1132.586,1043.864L1074.159,1029.72C1015.732,1015.576,898.878,987.288,840.451,960.477C782.023,933.667,782.023,908.333,782.023,885C782.023,861.667,782.023,840.333,782.023,819C782.023,797.667,782.023,776.333,782.023,755C782.023,733.667,782.023,712.333,782.023,691C782.023,669.667,782.023,648.333,782.023,623C782.023,597.667,782.023,568.333,763.535,543.814C745.046,519.294,708.069,499.587,689.58,489.734L671.092,479.881" id="my-svg-L_System_Cashier_0" class="edge-thickness-normal edge-pattern-solid edge-thickness-normal edge-pattern-solid flowchart-link" style=";" data-edge="true" data-et="edge" data-id="L_System_Cashier_0" data-points="W3sieCI6MTEzMi41ODYxMjA4NjgwMDA4LCJ5IjoxMDQzLjg2NDAxMDMwMTI4N30seyJ4Ijo3ODIuMDIzNDM3NSwieSI6OTU5fSx7IngiOjc4Mi4wMjM0Mzc1LCJ5Ijo4ODN9LHsieCI6NzgyLjAyMzQzNzUsInkiOjgxOX0seyJ4Ijo3ODIuMDIzNDM3NSwieSI6NzU1fSx7IngiOjc4Mi4wMjM0Mzc1LCJ5Ijo2OTF9LHsieCI6NzgyLjAyMzQzNzUsInkiOjYyN30seyJ4Ijo3ODIuMDIzNDM3NSwieSI6NTM5fSx7IngiOjY2Ny41NjE3ODk3NzI3MjczLCJ5Ijo0Nzh9XQ==" data-look="classic" marker-end="url(#my-svg_flowchart-v2-pointEnd)"/><path d="M363.563,654L363.563,660.167C363.563,666.333,363.563,678.667,363.563,695.5C363.563,712.333,363.563,733.667,363.563,755C363.563,776.333,363.563,797.667,363.563,819C363.563,840.333,363.563,861.667,363.563,885C363.563,908.333,363.563,933.667,490.905,961.325C618.248,988.983,872.933,1018.965,1000.276,1033.956L1127.619,1048.948" id="my-svg-L_POS_System_0" class="edge-thickness-normal edge-pattern-solid edge-thickness-normal edge-pattern-solid flowchart-link" style=";" data-edge="true" data-et="edge" data-id="L_POS_System_0" data-points="W3sieCI6MzYzLjU2MjUsInkiOjY1NH0seyJ4IjozNjMuNTYyNSwieSI6NjkxfSx7IngiOjM2My41NjI1LCJ5Ijo3NTV9LHsieCI6MzYzLjU2MjUsInkiOjgxOX0seyJ4IjozNjMuNTYyNSwieSI6ODgzfSx7IngiOjM2My41NjI1LCJ5Ijo5NTl9LHsieCI6MTEzMS41OTExNzIwMTg5NDM4LCJ5IjoxMDQ5LjQxNTI0MDc4NTAwOTV9XQ==" data-look="classic" marker-end="url(#my-svg_flowchart-v2-pointEnd)"/><path d="M1131.727,1048.361L1025.923,1033.468C920.118,1018.574,708.508,988.787,602.703,961.227C496.898,933.667,496.898,908.333,496.898,885C496.898,861.667,496.898,840.333,496.898,819C496.898,797.667,496.898,776.333,496.898,755C496.898,733.667,496.898,712.333,484.652,695.788C472.406,679.244,447.913,667.487,435.666,661.609L423.42,655.731" id="my-svg-L_System_POS_0" class="edge-thickness-normal edge-pattern-solid edge-thickness-normal edge-pattern-solid flowchart-link" style=";" data-edge="true" data-et="edge" data-id="L_System_POS_0" data-points="W3sieCI6MTEzMS43MjczNzUwODEwMTIzLCJ5IjoxMDQ4LjM2MTI1OTIzOTIwNjd9LHsieCI6NDk2Ljg5ODQzNzUsInkiOjk1OX0seyJ4Ijo0OTYuODk4NDM3NSwieSI6ODgzfSx7IngiOjQ5Ni44OTg0Mzc1LCJ5Ijo4MTl9LHsieCI6NDk2Ljg5ODQzNzUsInkiOjc1NX0seyJ4Ijo0OTYuODk4NDM3NSwieSI6NjkxfSx7IngiOjQxOS44MTM1OTg2MzI4MTI1LCJ5Ijo2NTR9XQ==" data-look="classic" marker-end="url(#my-svg_flowchart-v2-pointEnd)"/><path d="M107.633,782L107.633,788.167C107.633,794.333,107.633,806.667,107.633,823.5C107.633,840.333,107.633,861.667,107.633,885C107.633,908.333,107.633,933.667,277.606,961.56C447.579,989.452,787.526,1019.905,957.499,1035.131L1127.473,1050.357" id="my-svg-L_Mobile_System_0" class="edge-thickness-normal edge-pattern-solid edge-thickness-normal edge-pattern-solid flowchart-link" style=";" data-edge="true" data-et="edge" data-id="L_Mobile_System_0" data-points="W3sieCI6MTA3LjYzMjgxMjUsInkiOjc4Mn0seyJ4IjoxMDcuNjMyODEyNSwieSI6ODE5fSx7IngiOjEwNy42MzI4MTI1LCJ5Ijo4ODN9LHsieCI6MTA3LjYzMjgxMjUsInkiOjk1OX0seyJ4IjoxMTMxLjQ1NjU3NTkzNDI4NzIsInkiOjEwNTAuNzE0MDM1MzczMzQxMn1d" data-look="classic" marker-end="url(#my-svg_flowchart-v2-pointEnd)"/><path d="M1131.53,1049.962L988.293,1034.802C845.056,1019.641,558.583,989.321,415.346,961.494C272.109,933.667,272.109,908.333,272.109,885C272.109,861.667,272.109,840.333,256.883,823.742C241.656,807.15,211.203,795.3,195.976,789.375L180.749,783.451" id="my-svg-L_System_Mobile_0" class="edge-thickness-normal edge-pattern-solid edge-thickness-normal edge-pattern-solid flowchart-link" style=";" data-edge="true" data-et="edge" data-id="L_System_Mobile_0" data-points="W3sieCI6MTEzMS41MzAwMzE3ODc4NTIzLCJ5IjoxMDQ5Ljk2MjIxNjY5MjkyOTh9LHsieCI6MjcyLjEwOTM3NSwieSI6OTU5fSx7IngiOjI3Mi4xMDkzNzUsInkiOjg4M30seyJ4IjoyNzIuMTA5Mzc1LCJ5Ijo4MTl9LHsieCI6MTc3LjAyMTM2MjMwNDY4NzUsInkiOjc4Mn1d" data-look="classic" marker-end="url(#my-svg_flowchart-v2-pointEnd)"/><path d="M970.459,910L959.053,918.167C947.647,926.333,924.835,942.667,951.44,964.033C978.044,985.4,1054.065,1011.801,1092.076,1025.001L1130.086,1038.201" id="my-svg-L_Admin_System_0" class="edge-thickness-normal edge-pattern-solid edge-thickness-normal edge-pattern-solid flowchart-link" style=";" data-edge="true" data-et="edge" data-id="L_Admin_System_0" data-points="W3sieCI6OTcwLjQ1ODcyNzM4NDg2ODQsInkiOjkxMH0seyJ4Ijo5MDIuMDIzNDM3NSwieSI6OTU5fSx7IngiOjExMzMuODY0OTkxNzAwNzA4MywieSI6MTAzOS41MTMwNjU3Mjk2Njc1fV0=" data-look="classic" marker-end="url(#my-svg_flowchart-v2-pointEnd)"/><path d="M1154.473,1014.426L1149.065,1005.188C1143.657,995.951,1132.84,977.475,1115.752,960.441C1098.663,943.407,1075.303,927.814,1063.624,920.017L1051.944,912.221" id="my-svg-L_System_Admin_0" class="edge-thickness-normal edge-pattern-solid edge-thickness-normal edge-pattern-solid flowchart-link" style=";" data-edge="true" data-et="edge" data-id="L_System_Admin_0" data-points="W3sieCI6MTE1NC40NzMwNjg0ODI3NDc3LCJ5IjoxMDE0LjQyNjAzNzc1MzE4MDN9LHsieCI6MTEyMi4wMjM0Mzc1LCJ5Ijo5NTl9LHsieCI6MTA0OC42MTY2MjIxMjE3MTA2LCJ5Ijo5MTB9XQ==" data-look="classic" marker-end="url(#my-svg_flowchart-v2-pointEnd)"/></g><g class="edgeLabels"><g class="edgeLabel"><g class="label" data-id="L_Customer_Waiter_0" transform="translate(0, 0)"><foreignObject width="0" height="0"><div xmlns="http://www.w3.org/1999/xhtml" class="labelBkg" style="display: table-cell; white-space: nowrap; line-height: 1.5; max-width: 200px; text-align: center;"><span class="edgeLabel"></span></div></foreignObject></g></g><g class="edgeLabel"><g class="label" data-id="L_Waiter_Kitchen_0" transform="translate(0, 0)"><foreignObject width="0" height="0"><div xmlns="http://www.w3.org/1999/xhtml" class="labelBkg" style="display: table-cell; white-space: nowrap; line-height: 1.5; max-width: 200px; text-align: center;"><span class="edgeLabel"></span></div></foreignObject></g></g><g class="edgeLabel"><g class="label" data-id="L_Kitchen_Bar_0" transform="translate(0, 0)"><foreignObject width="0" height="0"><div xmlns="http://www.w3.org/1999/xhtml" class="labelBkg" style="display: table-cell; white-space: nowrap; line-height: 1.5; max-width: 200px; text-align: center;"><span class="edgeLabel"></span></div></foreignObject></g></g><g class="edgeLabel"><g class="label" data-id="L_Bar_Cashier_0" transform="translate(0, 0)"><foreignObject width="0" height="0"><div xmlns="http://www.w3.org/1999/xhtml" class="labelBkg" style="display: table-cell; white-space: nowrap; line-height: 1.5; max-width: 200px; text-align: center;"><span class="edgeLabel"></span></div></foreignObject></g></g><g class="edgeLabel"><g class="label" data-id="L_Cashier_POS_0" transform="translate(0, 0)"><foreignObject width="0" height="0"><div xmlns="http://www.w3.org/1999/xhtml" class="labelBkg" style="display: table-cell; white-space: nowrap; line-height: 1.5; max-width: 200px; text-align: center;"><span class="edgeLabel"></span></div></foreignObject></g></g><g class="edgeLabel"><g class="label" data-id="L_POS_Mobile_0" transform="translate(0, 0)"><foreignObject width="0" height="0"><div xmlns="http://www.w3.org/1999/xhtml" class="labelBkg" style="display: table-cell; white-space: nowrap; line-height: 1.5; max-width: 200px; text-align: center;"><span class="edgeLabel"></span></div></foreignObject></g></g><g class="edgeLabel"><g class="label" data-id="L_Mobile_Admin_0" transform="translate(0, 0)"><foreignObject width="0" height="0"><div xmlns="http://www.w3.org/1999/xhtml" class="labelBkg" style="display: table-cell; white-space: nowrap; line-height: 1.5; max-width: 200px; text-align: center;"><span class="edgeLabel"></span></div></foreignObject></g></g><g class="edgeLabel"><g class="label" data-id="L_Admin_Customer_0" transform="translate(0, 0)"><foreignObject width="0" height="0"><div xmlns="http://www.w3.org/1999/xhtml" class="labelBkg" style="display: table-cell; white-space: nowrap; line-height: 1.5; max-width: 200px; text-align: center;"><span class="edgeLabel"></span></div></foreignObject></g></g><g class="edgeLabel" transform="translate(2060.4609375, 451)"><g class="label" data-id="L_Customer_System_0" transform="translate(-100, -24)"><foreignObject width="200" height="48"><div xmlns="http://www.w3.org/1999/xhtml" class="labelBkg" style="display: table; white-space: break-spaces; line-height: 1.5; max-width: 200px; text-align: center; width: 200px;"><span class="edgeLabel"><p>Place Order, Scan QR, Feedback, Page Staff</p></span></div></foreignObject></g></g><g class="edgeLabel" transform="translate(2300.4609375, 451)"><g class="label" data-id="L_System_Customer_0" transform="translate(-100, -24)"><foreignObject width="200" height="48"><div xmlns="http://www.w3.org/1999/xhtml" class="labelBkg" style="display: table; white-space: break-spaces; line-height: 1.5; max-width: 200px; text-align: center; width: 200px;"><span class="edgeLabel"><p>Confirmation, Receipt, Notification</p></span></div></foreignObject></g></g><g class="edgeLabel" transform="translate(1720.4609375, 539)"><g class="label" data-id="L_Waiter_System_0" transform="translate(-100, -36)"><foreignObject width="200" height="72"><div xmlns="http://www.w3.org/1999/xhtml" class="labelBkg" style="display: table; white-space: break-spaces; line-height: 1.5; max-width: 200px; text-align: center; width: 200px;"><span class="edgeLabel"><p>Manage Session, Place/Modify Order, Resolve Request</p></span></div></foreignObject></g></g><g class="edgeLabel" transform="translate(1940.4609375, 539)"><g class="label" data-id="L_System_Waiter_0" transform="translate(-100, -24)"><foreignObject width="200" height="48"><div xmlns="http://www.w3.org/1999/xhtml" class="labelBkg" style="display: table; white-space: break-spaces; line-height: 1.5; max-width: 200px; text-align: center; width: 200px;"><span class="edgeLabel"><p>Table Status, Pending Requests</p></span></div></foreignObject></g></g><g class="edgeLabel" transform="translate(1600.4609375, 627)"><g class="label" data-id="L_System_Kitchen_0" transform="translate(-45.71875, -12)"><foreignObject width="91.4375" height="24"><div xmlns="http://www.w3.org/1999/xhtml" class="labelBkg" style="display: table-cell; white-space: nowrap; line-height: 1.5; max-width: 200px; text-align: center;"><span class="edgeLabel"><p>Order Queue</p></span></div></foreignObject></g></g><g class="edgeLabel" transform="translate(1466.0625, 627)"><g class="label" data-id="L_Kitchen_System_0" transform="translate(-68.6796875, -12)"><foreignObject width="137.359375" height="24"><div xmlns="http://www.w3.org/1999/xhtml" class="labelBkg" style="display: table-cell; white-space: nowrap; line-height: 1.5; max-width: 200px; text-align: center;"><span class="edgeLabel"><p>Update Prep Status</p></span></div></foreignObject></g></g><g class="edgeLabel" transform="translate(1377.3828125, 691)"><g class="label" data-id="L_System_Bar_0" transform="translate(-43.9921875, -12)"><foreignObject width="87.984375" height="24"><div xmlns="http://www.w3.org/1999/xhtml" class="labelBkg" style="display: table-cell; white-space: nowrap; line-height: 1.5; max-width: 200px; text-align: center;"><span class="edgeLabel"><p>Drink Queue</p></span></div></foreignObject></g></g><g class="edgeLabel" transform="translate(1242.0234375, 691)"><g class="label" data-id="L_Bar_System_0" transform="translate(-71.3671875, -12)"><foreignObject width="142.734375" height="24"><div xmlns="http://www.w3.org/1999/xhtml" class="labelBkg" style="display: table-cell; white-space: nowrap; line-height: 1.5; max-width: 200px; text-align: center;"><span class="edgeLabel"><p>Update Drink Status</p></span></div></foreignObject></g></g><g class="edgeLabel" transform="translate(616.8984375, 755)"><g class="label" data-id="L_Cashier_System_0" transform="translate(-100, -24)"><foreignObject width="200" height="48"><div xmlns="http://www.w3.org/1999/xhtml" class="labelBkg" style="display: table; white-space: break-spaces; line-height: 1.5; max-width: 200px; text-align: center; width: 200px;"><span class="edgeLabel"><p>Process Payment, Verify Order</p></span></div></foreignObject></g></g><g class="edgeLabel" transform="translate(782.0234375, 755)"><g class="label" data-id="L_System_Cashier_0" transform="translate(-45.125, -12)"><foreignObject width="90.25" height="24"><div xmlns="http://www.w3.org/1999/xhtml" class="labelBkg" style="display: table-cell; white-space: nowrap; line-height: 1.5; max-width: 200px; text-align: center;"><span class="edgeLabel"><p>Pending Bills</p></span></div></foreignObject></g></g><g class="edgeLabel" transform="translate(363.5625, 819)"><g class="label" data-id="L_POS_System_0" transform="translate(-71.453125, -12)"><foreignObject width="142.90625" height="24"><div xmlns="http://www.w3.org/1999/xhtml" class="labelBkg" style="display: table-cell; white-space: nowrap; line-height: 1.5; max-width: 200px; text-align: center;"><span class="edgeLabel"><p>Sync Orders &amp; Menu</p></span></div></foreignObject></g></g><g class="edgeLabel" transform="translate(496.8984375, 819)"><g class="label" data-id="L_System_POS_0" transform="translate(-41.8828125, -12)"><foreignObject width="83.765625" height="24"><div xmlns="http://www.w3.org/1999/xhtml" class="labelBkg" style="display: table-cell; white-space: nowrap; line-height: 1.5; max-width: 200px; text-align: center;"><span class="edgeLabel"><p>Sync Events</p></span></div></foreignObject></g></g><g class="edgeLabel" transform="translate(107.6328125, 883)"><g class="label" data-id="L_Mobile_System_0" transform="translate(-99.6328125, -12)"><foreignObject width="199.265625" height="24"><div xmlns="http://www.w3.org/1999/xhtml" class="labelBkg" style="display: table-cell; white-space: nowrap; line-height: 1.5; max-width: 200px; text-align: center;"><span class="edgeLabel"><p>Browse Menu, Submit Order</p></span></div></foreignObject></g></g><g class="edgeLabel" transform="translate(272.109375, 883)"><g class="label" data-id="L_System_Mobile_0" transform="translate(-44.84375, -12)"><foreignObject width="89.6875" height="24"><div xmlns="http://www.w3.org/1999/xhtml" class="labelBkg" style="display: table-cell; white-space: nowrap; line-height: 1.5; max-width: 200px; text-align: center;"><span class="edgeLabel"><p>Order Status</p></span></div></foreignObject></g></g><g class="edgeLabel" transform="translate(902.0234375, 959)"><g class="label" data-id="L_Admin_System_0" transform="translate(-100, -24)"><foreignObject width="200" height="48"><div xmlns="http://www.w3.org/1999/xhtml" class="labelBkg" style="display: table; white-space: break-spaces; line-height: 1.5; max-width: 200px; text-align: center; width: 200px;"><span class="edgeLabel"><p>Manage Menu, Inventory, Users, Systems</p></span></div></foreignObject></g></g><g class="edgeLabel" transform="translate(1112.02937, 952.32883)"><g class="label" data-id="L_System_Admin_0" transform="translate(-100, -24)"><foreignObject width="200" height="48"><div xmlns="http://www.w3.org/1999/xhtml" class="labelBkg" style="display: table; white-space: break-spaces; line-height: 1.5; max-width: 200px; text-align: center; width: 200px;"><span class="edgeLabel"><p>Reports, Audit Logs, Simulations</p></span></div></foreignObject></g></g></g><g class="nodes"><g class="node default" id="my-svg-flowchart-Customer-0" data-look="classic" transform="translate(2120.4609375, 35)"><rect class="basic label-container" style="" x="-63.9765625" y="-27" width="127.953125" height="54"/><g class="label" style="" transform="translate(-33.9765625, -12)"><rect/><foreignObject width="67.953125" height="24"><div xmlns="http://www.w3.org/1999/xhtml" style="display: table-cell; white-space: nowrap; line-height: 1.5; max-width: 200px; text-align: center;"><span class="nodeLabel"><p>Customer</p></span></div></foreignObject></g></g><g class="node default" id="my-svg-flowchart-Waiter-1" data-look="classic" transform="translate(1720.4609375, 139)"><rect class="basic label-container" style="" x="-53.5" y="-27" width="107" height="54"/><g class="label" style="" transform="translate(-23.5, -12)"><rect/><foreignObject width="47" height="24"><div xmlns="http://www.w3.org/1999/xhtml" style="display: table-cell; white-space: nowrap; line-height: 1.5; max-width: 200px; text-align: center;"><span class="nodeLabel"><p>Waiter</p></span></div></foreignObject></g></g><g class="node default" id="my-svg-flowchart-Kitchen-2" data-look="classic" transform="translate(1466.0625, 243)"><rect class="basic label-container" style="" x="-76.421875" y="-27" width="152.84375" height="54"/><g class="label" style="" transform="translate(-46.421875, -12)"><rect/><foreignObject width="92.84375" height="24"><div xmlns="http://www.w3.org/1999/xhtml" style="display: table-cell; white-space: nowrap; line-height: 1.5; max-width: 200px; text-align: center;"><span class="nodeLabel"><p>Kitchen Staff</p></span></div></foreignObject></g></g><g class="node default" id="my-svg-flowchart-Bar-3" data-look="classic" transform="translate(1242.0234375, 347)"><rect class="basic label-container" style="" x="-61.390625" y="-27" width="122.78125" height="54"/><g class="label" style="" transform="translate(-31.390625, -12)"><rect/><foreignObject width="62.78125" height="24"><div xmlns="http://www.w3.org/1999/xhtml" style="display: table-cell; white-space: nowrap; line-height: 1.5; max-width: 200px; text-align: center;"><span class="nodeLabel"><p>Bar Staff</p></span></div></foreignObject></g></g><g class="node default" id="my-svg-flowchart-Cashier-4" data-look="classic" transform="translate(616.8984375, 451)"><rect class="basic label-container" style="" x="-56.3515625" y="-27" width="112.703125" height="54"/><g class="label" style="" transform="translate(-26.3515625, -12)"><rect/><foreignObject width="52.703125" height="24"><div xmlns="http://www.w3.org/1999/xhtml" style="display: table-cell; white-space: nowrap; line-height: 1.5; max-width: 200px; text-align: center;"><span class="nodeLabel"><p>Cashier</p></span></div></foreignObject></g></g><g class="node default" id="my-svg-flowchart-POS-5" data-look="classic" transform="translate(363.5625, 627)"><rect class="basic label-container" style="" x="-75.984375" y="-27" width="151.96875" height="54"/><g class="label" style="" transform="translate(-45.984375, -12)"><rect/><foreignObject width="91.96875" height="24"><div xmlns="http://www.w3.org/1999/xhtml" style="display: table-cell; white-space: nowrap; line-height: 1.5; max-width: 200px; text-align: center;"><span class="nodeLabel"><p>External POS</p></span></div></foreignObject></g></g><g class="node default" id="my-svg-flowchart-Mobile-6" data-look="classic" transform="translate(107.6328125, 755)"><rect class="basic label-container" style="" x="-80.6484375" y="-27" width="161.296875" height="54"/><g class="label" style="" transform="translate(-50.6484375, -12)"><rect/><foreignObject width="101.296875" height="24"><div xmlns="http://www.w3.org/1999/xhtml" style="display: table-cell; white-space: nowrap; line-height: 1.5; max-width: 200px; text-align: center;"><span class="nodeLabel"><p>Kiosk / Mobile</p></span></div></foreignObject></g></g><g class="node default" id="my-svg-flowchart-Admin-7" data-look="classic" transform="translate(1008.16796875, 883)"><rect class="basic label-container" style="" x="-79.046875" y="-27" width="158.09375" height="54"/><g class="label" style="" transform="translate(-49.046875, -12)"><rect/><foreignObject width="98.09375" height="24"><div xmlns="http://www.w3.org/1999/xhtml" style="display: table-cell; white-space: nowrap; line-height: 1.5; max-width: 200px; text-align: center;"><span class="nodeLabel"><p>Administrator</p></span></div></foreignObject></g></g><g class="node default" id="my-svg-flowchart-System-8" data-look="classic" transform="translate(1178.16796875, 1054.8984375)"><circle class="basic label-container" style="" r="46.8984375" cx="0" cy="0"/><g class="label" style="" transform="translate(-39.3984375, -24)"><rect/><foreignObject width="78.796875" height="48"><div xmlns="http://www.w3.org/1999/xhtml" style="display: table-cell; white-space: nowrap; line-height: 1.5; max-width: 200px; text-align: center;"><span class="nodeLabel"><p>MicroBlend<br />      System</p></span></div></foreignObject></g></g></g></g></g><defs><filter id="my-svg-drop-shadow" height="130%" width="130%"><feDropShadow dx="4" dy="4" stdDeviation="0" flood-opacity="0.06" flood-color="#000000"/></filter></defs><defs><filter id="my-svg-drop-shadow-small" height="150%" width="150%"><feDropShadow dx="2" dy="2" stdDeviation="0" flood-opacity="0.06" flood-color="#000000"/></filter></defs></svg>